<svg fill="#000000" xmlns="http://www.w3.org/2000/svg" viewBox="0 0 80 80" width="50px" height="50px"><path d="M 43.609375 10.082031 C 43.484375 10.082031 43.367188 10.101563 43.25 10.140625 L 30.59375 14.785156 C 30.46875 14.832031 30.351563 14.902344 30.253906 14.996094 L 18.289063 26.144531 C 18.21875 26.210938 18.15625 26.289063 18.109375 26.375 L 10.136719 40.0625 C 10.046875 40.210938 10 40.386719 10 40.5625 L 10 57.359375 L 10.011719 57.359375 C 10.191406 63.234375 12.515625 66.558594 15.308594 68.21875 C 18.109375 69.882813 21.238281 69.949219 22.988281 70 C 23.019531 70 23.054688 70 23.085938 70 L 65.765625 67.007813 C 66.261719 66.972656 66.65625 66.578125 66.691406 66.082031 L 70 22.089844 C 70 22.058594 70 22.027344 70 22 C 69.960938 19.371094 69.34375 16.761719 67.738281 14.628906 C 66.136719 12.496094 63.554688 10.917969 59.875 10.289063 C 59.820313 10.28125 59.769531 10.277344 59.71875 10.277344 Z M 43.765625 12.082031 L 44.035156 12.089844 L 44.105469 12.582031 L 44.355469 12.828125 L 44.4375 12.890625 L 45.324219 13.019531 L 45.957031 12.386719 L 45.917969 12.109375 L 56.519531 12.234375 L 56.347656 12.519531 L 56.683594 13.351563 L 57.546875 13.582031 L 57.875 13.453125 L 57.957031 13.398438 L 58.425781 12.636719 L 58.277344 12.257813 L 59.574219 12.273438 C 62.84375 12.839844 64.871094 14.140625 66.140625 15.832031 C 67.417969 17.527344 67.957031 19.683594 67.996094 22.007813 L 67.472656 28.953125 L 67.140625 29.171875 L 67.015625 29.503906 L 67 29.605469 L 67.253906 30.464844 L 67.359375 30.5 L 67.1875 32.78125 L 66.886719 32.574219 L 66.035156 32.859375 L 65.832031 33.144531 L 65.792969 33.238281 L 65.824219 34.132813 L 66.5625 34.644531 L 67.0625 34.476563 L 64.765625 65.074219 L 31.996094 67.371094 L 32.382813 66.917969 L 32.1875 66.042969 L 31.371094 65.671875 L 31.027344 65.75 L 30.933594 65.789063 L 30.347656 66.46875 L 30.546875 67.34375 L 30.789063 67.453125 L 28.40625 67.621094 L 28.394531 67.515625 L 27.625 67.0625 L 27.277344 67.097656 L 27.179688 67.125 L 26.523438 67.738281 L 26.527344 67.75 L 24.859375 67.871094 L 24.9375 67.667969 L 24.839844 67.328125 L 24.792969 67.238281 L 24.078125 66.699219 L 23.21875 66.949219 L 22.902344 67.785156 L 22.964844 67.996094 C 21.214844 67.945313 18.546875 67.816406 16.328125 66.5 C 14.074219 65.160156 12.152344 62.679688 12 57.234375 L 12 56.578125 L 12.066406 56.558594 L 12.277344 56.277344 L 12.324219 56.1875 L 12.320313 55.292969 L 12 55.050781 L 12 42.375 L 12.339844 42.28125 L 12.667969 41.449219 L 12.574219 41.109375 L 12.53125 41.019531 L 12.09375 40.675781 L 19.761719 27.507813 L 31.46875 16.59375 Z M 47.972656 13.410156 L 47.339844 14.046875 L 47.464844 14.933594 L 47.714844 15.183594 L 47.796875 15.238281 L 48.683594 15.371094 L 49.316406 14.734375 L 49.191406 13.847656 L 48.941406 13.597656 L 48.859375 13.542969 Z M 53.75 13.738281 L 53.421875 13.871094 L 53.335938 13.921875 L 52.871094 14.6875 L 53.203125 15.519531 L 54.066406 15.75 L 54.394531 15.621094 L 54.480469 15.566406 L 54.949219 14.804688 L 54.613281 13.972656 Z M 50.742188 16.03125 L 49.941406 16.429688 L 49.78125 16.746094 L 49.753906 16.84375 L 49.914063 17.722656 L 50.714844 18.125 L 51.515625 17.722656 L 51.671875 17.40625 L 51.703125 17.3125 L 51.546875 16.429688 Z M 53.441406 18.246094 L 52.796875 18.867188 L 52.917969 19.753906 L 53.160156 20.011719 L 53.242188 20.066406 L 54.125 20.207031 L 54.769531 19.582031 L 54.65625 18.695313 L 54.40625 18.441406 L 54.328125 18.386719 Z M 49.582031 19.960938 L 48.78125 20.363281 L 48.625 20.675781 L 48.59375 20.773438 L 48.753906 21.65625 L 49.554688 22.058594 L 50.355469 21.65625 L 50.515625 21.339844 L 50.542969 21.246094 L 50.382813 20.359375 Z M 56.773438 20.636719 L 56.128906 21.261719 L 56.246094 22.148438 L 56.492188 22.402344 L 56.574219 22.457031 L 57.457031 22.597656 L 58.097656 21.972656 L 57.984375 21.085938 L 57.738281 20.832031 L 57.65625 20.777344 Z M 60.105469 23.027344 L 59.460938 23.652344 L 59.578125 24.539063 L 59.824219 24.792969 L 59.902344 24.847656 L 60.785156 24.988281 L 61.433594 24.367188 L 61.3125 23.480469 L 61.070313 23.222656 L 60.988281 23.167969 Z M 48.421875 23.890625 L 47.621094 24.296875 L 47.464844 24.609375 L 47.4375 24.707031 L 47.59375 25.589844 L 48.394531 25.988281 L 49.195313 25.589844 L 49.355469 25.269531 L 49.378906 25.175781 L 49.222656 24.296875 Z M 63.433594 25.417969 L 62.792969 26.042969 L 62.90625 26.929688 L 63.152344 27.183594 L 63.234375 27.238281 L 64.121094 27.382813 L 64.761719 26.757813 L 64.644531 25.871094 L 64.402344 25.613281 L 64.316406 25.558594 Z M 47.261719 27.828125 L 46.460938 28.230469 L 46.300781 28.542969 L 46.277344 28.640625 L 46.433594 29.519531 L 47.234375 29.921875 L 48.035156 29.519531 L 48.191406 29.203125 L 48.21875 29.109375 L 48.0625 28.226563 Z M 65.363281 29.035156 L 65.265625 29.046875 L 64.515625 29.539063 L 64.460938 30.433594 L 65.140625 31.015625 L 65.496094 31.035156 L 65.59375 31.027344 L 66.34375 30.535156 L 66.402344 29.640625 L 65.71875 29.0625 Z M 61.292969 29.507813 L 61.191406 29.515625 L 60.441406 30.011719 L 60.386719 30.902344 L 61.070313 31.484375 L 61.421875 31.503906 L 61.519531 31.496094 L 62.269531 31.003906 L 62.328125 30.109375 L 61.644531 29.53125 Z M 57.21875 29.976563 L 57.121094 29.988281 L 56.371094 30.480469 L 56.3125 31.375 L 56.996094 31.953125 L 57.347656 31.972656 L 57.449219 31.964844 L 58.199219 31.472656 L 58.253906 30.578125 L 57.570313 30 Z M 53.144531 30.445313 L 53.046875 30.457031 L 52.296875 30.949219 L 52.238281 31.84375 L 52.921875 32.421875 L 53.277344 32.441406 L 53.375 32.433594 L 54.125 31.941406 L 54.183594 31.046875 L 53.5 30.46875 Z M 49.074219 30.914063 L 48.972656 30.925781 L 48.222656 31.417969 L 48.167969 32.3125 L 48.851563 32.890625 L 49.203125 32.910156 L 49.300781 32.902344 L 50.050781 32.410156 L 50.109375 31.515625 L 49.421875 30.9375 Z M 45.484375 31.65625 L 45.183594 31.839844 L 45.105469 31.90625 L 44.765625 32.734375 L 45.230469 33.5 L 46.121094 33.589844 L 46.421875 33.40625 L 46.5 33.34375 L 46.835938 32.515625 L 46.375 31.746094 Z M 42.394531 34.355469 L 42.09375 34.535156 L 42.019531 34.605469 L 41.683594 35.433594 L 42.144531 36.203125 L 43.035156 36.292969 L 43.339844 36.109375 L 43.410156 36.042969 L 43.75 35.214844 L 43.289063 34.445313 Z M 65.03125 36.1875 L 64.152344 36.355469 L 63.910156 36.613281 L 63.859375 36.699219 L 63.769531 37.589844 L 64.433594 38.191406 L 65.3125 38.027344 L 65.550781 37.765625 L 65.605469 37.683594 L 65.691406 36.789063 Z M 47.316406 36.390625 L 46.421875 36.4375 L 45.921875 37.179688 L 45.9375 37.53125 L 45.957031 37.628906 L 46.53125 38.320313 L 47.425781 38.277344 L 47.925781 37.53125 L 47.90625 37.179688 L 47.886719 37.082031 Z M 39.3125 37.058594 L 39.011719 37.238281 L 38.9375 37.300781 L 38.59375 38.132813 L 39.058594 38.902344 L 39.949219 38.988281 L 40.25 38.808594 L 40.328125 38.742188 L 40.667969 37.914063 L 40.203125 37.144531 Z M 62.785156 39.59375 L 61.894531 39.703125 L 61.640625 39.949219 L 61.582031 40.03125 L 61.4375 40.917969 L 62.0625 41.5625 L 62.953125 41.449219 L 63.203125 41.203125 L 63.261719 41.121094 L 63.40625 40.234375 Z M 36.226563 39.753906 L 35.921875 39.9375 L 35.847656 40.003906 L 35.511719 40.832031 L 35.972656 41.601563 L 36.863281 41.6875 L 37.167969 41.507813 L 37.242188 41.441406 L 37.578125 40.613281 L 37.117188 39.84375 Z M 48.234375 40.386719 L 47.339844 40.433594 L 46.839844 41.175781 L 46.859375 41.527344 L 46.878906 41.625 L 47.453125 42.3125 L 48.34375 42.269531 L 48.84375 41.527344 L 48.828125 41.175781 L 48.808594 41.078125 Z M 33.140625 42.453125 L 32.839844 42.640625 L 32.765625 42.703125 L 32.425781 43.53125 L 32.886719 44.300781 L 33.78125 44.390625 L 34.078125 44.207031 L 34.15625 44.140625 L 34.496094 43.3125 L 34.03125 42.546875 Z M 60.316406 42.84375 L 59.421875 42.898438 L 59.15625 43.125 L 59.089844 43.203125 L 58.890625 44.078125 L 59.46875 44.761719 L 60.363281 44.703125 L 60.632813 44.476563 L 60.695313 44.402344 L 60.894531 43.527344 Z M 13.582031 44.171875 L 12.71875 44.40625 L 12.390625 45.238281 L 12.484375 45.578125 L 12.527344 45.671875 L 13.234375 46.222656 L 14.097656 45.984375 L 14.425781 45.152344 L 14.332031 44.8125 L 14.292969 44.722656 Z M 49.15625 44.382813 L 48.261719 44.425781 L 47.761719 45.171875 L 47.777344 45.519531 L 47.796875 45.621094 L 48.371094 46.3125 L 49.265625 46.265625 L 49.765625 45.523438 L 49.75 45.171875 L 49.726563 45.074219 Z M 30.058594 45.15625 L 29.753906 45.339844 L 29.675781 45.40625 L 29.433594 46 L 29.300781 46.269531 L 29.710938 47.066406 L 30.027344 47.21875 L 30.125 47.25 L 31.003906 47.082031 L 31.398438 46.28125 L 31.34375 46.171875 L 31.410156 46.015625 L 30.949219 45.246094 Z M 57.691406 45.972656 L 56.796875 45.984375 L 56.515625 46.203125 L 56.449219 46.277344 L 56.207031 47.140625 L 56.753906 47.847656 L 57.652344 47.835938 L 57.929688 47.621094 L 57.996094 47.546875 L 58.238281 46.683594 Z M 34.519531 46.425781 L 33.640625 46.59375 L 33.246094 47.394531 L 33.65625 48.191406 L 33.96875 48.347656 L 34.066406 48.375 L 34.949219 48.207031 L 35.34375 47.40625 L 34.933594 46.609375 L 34.613281 46.453125 Z M 26.796875 46.46875 L 26.445313 46.484375 L 26.347656 46.503906 L 25.652344 47.066406 L 25.683594 47.964844 L 26.421875 48.472656 L 26.769531 48.457031 L 26.871094 48.4375 L 27.566406 47.875 L 27.535156 46.980469 Z M 22.792969 47.339844 L 22.4375 47.351563 L 22.34375 47.375 L 21.640625 47.9375 L 21.675781 48.828125 L 22.410156 49.34375 L 22.765625 49.328125 L 22.863281 49.308594 L 23.5625 48.746094 L 23.527344 47.847656 Z M 38.464844 47.550781 L 37.582031 47.71875 L 37.1875 48.519531 L 37.59375 49.320313 L 37.910156 49.472656 L 38.011719 49.5 L 38.890625 49.335938 L 39.28125 48.53125 L 38.875 47.734375 L 38.558594 47.578125 Z M 15.34375 47.875 L 14.480469 48.109375 L 14.152344 48.941406 L 14.242188 49.28125 L 14.285156 49.375 L 14.992188 49.925781 L 15.855469 49.6875 L 16.1875 48.859375 L 16.09375 48.515625 L 16.046875 48.425781 Z M 18.785156 48.207031 L 18.433594 48.21875 L 18.332031 48.242188 L 17.636719 48.804688 L 17.671875 49.699219 L 18.40625 50.207031 L 18.757813 50.199219 L 18.855469 50.175781 L 19.550781 49.613281 L 19.519531 48.71875 Z M 50.074219 48.378906 L 49.179688 48.421875 L 48.679688 49.167969 L 48.699219 49.515625 L 48.71875 49.613281 L 49.292969 50.308594 L 50.1875 50.261719 L 50.6875 49.519531 L 50.667969 49.167969 L 50.644531 49.066406 Z M 42.40625 48.675781 L 41.523438 48.84375 L 41.128906 49.648438 L 41.539063 50.445313 L 41.855469 50.601563 L 41.953125 50.628906 L 42.832031 50.464844 L 43.226563 49.65625 L 42.816406 48.859375 L 42.5 48.703125 Z M 54.035156 48.972656 L 53.75 49.183594 L 53.679688 49.25 L 53.40625 50.109375 L 53.933594 50.832031 L 54.828125 50.851563 L 55.113281 50.644531 L 55.183594 50.574219 L 55.453125 49.71875 L 54.933594 48.992188 Z M 46.34375 49.804688 L 45.46875 49.96875 L 45.074219 50.777344 L 45.480469 51.574219 L 45.796875 51.726563 L 45.890625 51.753906 L 46.773438 51.589844 L 47.167969 50.785156 L 46.761719 49.984375 L 46.441406 49.832031 Z M 29.496094 50.007813 L 28.691406 50.40625 L 28.535156 50.722656 L 28.507813 50.820313 L 28.667969 51.703125 L 29.46875 52.105469 L 30.265625 51.703125 L 30.425781 51.386719 L 30.453125 51.292969 L 30.296875 50.40625 Z M 13.4375 51.089844 L 12.578125 51.34375 L 12.367188 51.625 L 12.324219 51.714844 L 12.324219 52.609375 L 13.042969 53.144531 L 13.902344 52.890625 L 14.109375 52.609375 L 14.15625 52.519531 L 14.15625 51.625 Z M 51.152344 51.828125 L 50.859375 52.019531 L 50.785156 52.089844 L 50.472656 52.933594 L 50.964844 53.683594 L 51.859375 53.738281 L 52.15625 53.546875 L 52.226563 53.480469 L 52.535156 52.640625 L 52.046875 51.886719 Z M 16.816406 51.996094 L 15.953125 52.242188 L 15.640625 53.082031 L 15.738281 53.421875 L 15.78125 53.511719 L 16.496094 54.050781 L 17.359375 53.800781 L 17.671875 52.964844 L 17.578125 52.625 L 17.53125 52.53125 Z M 28.332031 53.9375 L 27.53125 54.339844 L 27.375 54.65625 L 27.34375 54.75 L 27.503906 55.632813 L 28.308594 56.035156 L 29.109375 55.632813 L 29.265625 55.316406 L 29.292969 55.222656 L 29.136719 54.339844 Z M 53.644531 54.457031 L 52.941406 55.015625 L 52.96875 55.910156 L 53.1875 56.1875 L 53.261719 56.25 L 54.128906 56.484375 L 54.828125 55.925781 L 54.808594 55.03125 L 54.589844 54.753906 L 54.511719 54.6875 Z M 48.15625 54.5625 L 47.855469 54.738281 L 47.777344 54.808594 L 47.425781 55.628906 L 47.878906 56.40625 L 48.769531 56.503906 L 49.078125 56.328125 L 49.152344 56.261719 L 49.5 55.4375 L 49.046875 54.664063 Z M 18.632813 55.671875 L 17.769531 55.917969 L 17.453125 56.757813 L 17.550781 57.09375 L 17.597656 57.1875 L 18.3125 57.726563 L 19.171875 57.476563 L 19.488281 56.640625 L 19.390625 56.300781 L 19.347656 56.210938 Z M 45.027344 57.171875 L 44.71875 57.34375 L 44.703125 57.355469 L 44.695313 57.359375 L 44.660156 57.386719 L 44.265625 58.191406 L 44.679688 58.988281 L 45.5625 59.136719 L 45.875 58.972656 L 45.933594 58.933594 L 45.941406 58.921875 L 45.953125 58.914063 L 45.976563 58.894531 L 46.34375 58.078125 L 45.914063 57.296875 Z M 56.71875 57.175781 L 56.015625 57.730469 L 56.039063 58.625 L 56.257813 58.902344 L 56.332031 58.96875 L 57.199219 59.199219 L 57.902344 58.640625 L 57.875 57.75 L 57.65625 57.46875 L 57.582031 57.40625 Z M 10.074219 57.359375 L 11.902344 57.359375 L 11 58.261719 Z M 27.171875 57.871094 L 26.371094 58.273438 L 26.214844 58.589844 L 26.1875 58.683594 L 26.34375 59.566406 L 27.144531 59.96875 L 27.945313 59.566406 L 28.105469 59.25 L 28.128906 59.15625 L 27.972656 58.273438 Z M 20.449219 59.34375 L 19.585938 59.59375 L 19.269531 60.433594 L 19.371094 60.769531 L 19.414063 60.859375 L 20.128906 61.402344 L 20.988281 61.152344 L 21.304688 60.3125 L 21.207031 59.976563 L 21.160156 59.886719 Z M 41.796875 59.609375 L 41.480469 59.765625 L 41.398438 59.824219 L 40.984375 60.621094 L 41.375 61.425781 L 42.25 61.597656 L 42.570313 61.441406 L 42.652344 61.386719 L 43.0625 60.59375 L 42.675781 59.78125 Z M 59.785156 59.890625 L 59.085938 60.449219 L 59.109375 61.34375 L 59.328125 61.621094 L 59.402344 61.6875 L 60.269531 61.917969 L 60.972656 61.359375 L 60.949219 60.464844 L 60.730469 60.1875 L 60.65625 60.125 Z M 26.011719 61.800781 L 25.210938 62.203125 L 25.050781 62.519531 L 25.023438 62.613281 L 25.183594 63.5 L 25.984375 63.898438 L 26.78125 63.5 L 26.941406 63.183594 L 26.96875 63.085938 L 26.8125 62.203125 Z M 38.449219 61.875 L 38.125 62.003906 L 38.035156 62.058594 L 37.574219 62.828125 L 37.910156 63.65625 L 38.777344 63.882813 L 39.105469 63.75 L 39.1875 63.699219 L 39.652344 62.929688 L 39.316406 62.097656 Z M 62.859375 62.609375 L 62.15625 63.164063 L 62.179688 64.0625 L 62.398438 64.335938 L 62.472656 64.402344 L 63.339844 64.632813 L 64.042969 64.078125 L 64.015625 63.183594 L 63.796875 62.90625 L 63.722656 62.839844 Z M 22.265625 63.019531 L 21.402344 63.269531 L 21.085938 64.109375 L 21.1875 64.449219 L 21.230469 64.535156 L 21.941406 65.078125 L 22.804688 64.828125 L 23.121094 63.988281 L 23.019531 63.652344 L 22.980469 63.5625 Z M 34.972656 63.914063 L 34.640625 64.019531 L 34.550781 64.066406 L 34.03125 64.796875 L 34.308594 65.652344 L 35.152344 65.941406 L 35.488281 65.835938 L 35.578125 65.789063 L 36.097656 65.058594 L 35.824219 64.203125 Z"/></svg>
